<svg id="Capa_1" enable-background="new 0 0 512 512" height="512" viewBox="0 0 512 512" width="512" xmlns="http://www.w3.org/2000/svg"><g><path d="m509.804 303.196-60-60c-1.407-1.406-3.314-2.196-5.304-2.196h-86.893l-34.107-34.107v-64.393c0-1.989-.79-3.896-2.196-5.304l-42.804-42.803v-19.393h7.5c12.406 0 22.5-10.094 22.5-22.5s-10.094-22.5-22.5-22.5h-7.5v-7.5c0-12.406-10.094-22.5-22.5-22.5-12.407 0-22.5 10.094-22.5 22.5v7.5h-7.5c-12.407 0-22.5 10.094-22.5 22.5s10.093 22.5 22.5 22.5h7.5v19.393l-42.803 42.803c-1.407 1.407-2.197 3.314-2.197 5.304v64.393l-34.107 34.107h-86.893c-1.989 0-3.897.79-5.303 2.196l-60 60c-1.407 1.408-2.197 3.315-2.197 5.304v196c0 4.143 3.358 7.5 7.5 7.5h497c4.143 0 7.5-3.357 7.5-7.5v-196c0-1.989-.79-3.896-2.196-5.304zm-23.41-2.196h-124.394v-45h79.394zm-177.894-155.394v46.286l-30-30v-46.285zm-82.5-85.606c-4.136 0-7.5-3.364-7.5-7.5s3.364-7.5 7.5-7.5h15c4.142 0 7.5-3.357 7.5-7.5v-15c0-4.136 3.364-7.5 7.5-7.5s7.5 3.364 7.5 7.5v15c0 4.143 3.357 7.5 7.5 7.5h15c4.136 0 7.5 3.364 7.5 7.5s-3.364 7.5-7.5 7.5h-15c-4.143 0-7.5 3.357-7.5 7.5v79.393l-2.196-2.196c-2.93-2.928-7.678-2.928-10.607 0l-2.197 2.197v-79.394c0-4.143-3.358-7.5-7.5-7.5zm-22.5 85.606 30-30v46.286l-30 30zm-132.894 110.394h79.394v45h-124.394zm-55.606 60h135v113.5c0 4.143 3.358 7.5 7.5 7.5s7.5-3.357 7.5-7.5v-177.894l91-91 91 91v245.394h-45v-93.784c0-26.861-18.147-50.292-44.131-56.979-1.227-.314-2.513-.314-3.738 0-25.984 6.687-44.131 30.117-44.131 56.979v93.784h-45v-37.5c0-4.143-3.358-7.5-7.5-7.5s-7.5 3.357-7.5 7.5v37.5h-135zm272 151h-23.5v-56.284h23.5zm-61.352-71.284c2.788-16.132 14.42-29.569 30.352-34.428 15.933 4.858 27.565 18.296 30.352 34.428zm-.648 15h23.5v56.284h-23.5zm0 71.284h62v15h-62zm137 15v-181h135v181z"/><path d="m256 316c25.364 0 46-20.636 46-46s-20.636-46-46-46-46 20.636-46 46 20.636 46 46 46zm0-77c17.094 0 31 13.906 31 31s-13.906 31-31 31c-17.093 0-31-13.906-31-31s13.907-31 31-31z"/><path d="m114.37 346.237c-1.227-.316-2.513-.316-3.739 0-12.148 3.127-20.631 14.079-20.631 26.633v86.63c0 4.143 3.358 7.5 7.5 7.5h30c4.142 0 7.5-3.357 7.5-7.5v-86.63c0-12.554-8.483-23.506-20.63-26.633zm5.63 105.763h-15v-79.13c0-5.038 3.002-9.508 7.5-11.465 4.498 1.957 7.5 6.427 7.5 11.465z"/><path d="m54.37 346.237c-1.227-.316-2.513-.316-3.739 0-12.148 3.127-20.631 14.079-20.631 26.633v86.63c0 4.143 3.358 7.5 7.5 7.5h30c4.142 0 7.5-3.357 7.5-7.5v-86.63c0-12.554-8.483-23.506-20.63-26.633zm5.63 105.763h-15v-79.13c0-5.038 3.002-9.508 7.5-11.465 4.498 1.957 7.5 6.427 7.5 11.465z"/><path d="m401.37 346.237c-1.227-.316-2.514-.316-3.74 0-12.147 3.127-20.63 14.079-20.63 26.633v86.63c0 4.143 3.357 7.5 7.5 7.5h30c4.143 0 7.5-3.357 7.5-7.5v-86.63c0-12.554-8.483-23.506-20.63-26.633zm5.63 105.763h-15v-79.13c0-5.038 3.002-9.508 7.5-11.465 4.498 1.957 7.5 6.427 7.5 11.465z"/><path d="m461.37 346.237c-1.227-.316-2.514-.316-3.74 0-12.147 3.127-20.63 14.079-20.63 26.633v86.63c0 4.143 3.357 7.5 7.5 7.5h30c4.143 0 7.5-3.357 7.5-7.5v-86.63c0-12.554-8.483-23.506-20.63-26.633zm5.63 105.763h-15v-79.13c0-5.038 3.002-9.508 7.5-11.465 4.498 1.957 7.5 6.427 7.5 11.465z"/></g></svg>