<svg id="Layer_3" enable-background="new 0 0 64 64" height="512" viewBox="0 0 64 64" width="512" xmlns="http://www.w3.org/2000/svg"><g><path d="m12 37h-4c-.553 0-1 .447-1 1v4c0 .553.447 1 1 1h4c.553 0 1-.447 1-1v-4c0-.553-.447-1-1-1zm-1 4h-2v-2h2z"/><path d="m12 45h-4c-.553 0-1 .447-1 1v4c0 .553.447 1 1 1h4c.553 0 1-.447 1-1v-4c0-.553-.447-1-1-1zm-1 4h-2v-2h2z"/><path d="m12 53h-4c-.553 0-1 .447-1 1v4c0 .553.447 1 1 1h4c.553 0 1-.447 1-1v-4c0-.553-.447-1-1-1zm-1 4h-2v-2h2z"/><path d="m56 37h-4c-.553 0-1 .447-1 1v4c0 .553.447 1 1 1h4c.553 0 1-.447 1-1v-4c0-.553-.447-1-1-1zm-1 4h-2v-2h2z"/><path d="m12 29h-4c-.553 0-1 .447-1 1v4c0 .553.447 1 1 1h4c.553 0 1-.447 1-1v-4c0-.553-.447-1-1-1zm-1 4h-2v-2h2z"/><path d="m56 29h-4c-.553 0-1 .447-1 1v4c0 .553.447 1 1 1h4c.553 0 1-.447 1-1v-4c0-.553-.447-1-1-1zm-1 4h-2v-2h2z"/><path d="m56 45h-4c-.553 0-1 .447-1 1v4c0 .553.447 1 1 1h4c.553 0 1-.447 1-1v-4c0-.553-.447-1-1-1zm-1 4h-2v-2h2z"/><path d="m42 45h-4c-.553 0-1 .447-1 1v4c0 .553.447 1 1 1h4c.553 0 1-.447 1-1v-4c0-.553-.447-1-1-1zm-1 4h-2v-2h2z"/><path d="m34 45h-4c-.553 0-1 .447-1 1v4c0 .553.447 1 1 1h4c.553 0 1-.447 1-1v-4c0-.553-.447-1-1-1zm-1 4h-2v-2h2z"/><path d="m26 45h-4c-.553 0-1 .447-1 1v4c0 .553.447 1 1 1h4c.553 0 1-.447 1-1v-4c0-.553-.447-1-1-1zm-1 4h-2v-2h2z"/><path d="m43 30c0-.553-.447-1-1-1h-4c-.553 0-1 .447-1 1v4c0 .553.447 1 1 1h4c.553 0 1-.447 1-1zm-2 3h-2v-2h2z"/><path d="m35 30c0-.553-.447-1-1-1h-4c-.553 0-1 .447-1 1v4c0 .553.447 1 1 1h4c.553 0 1-.447 1-1zm-2 3h-2v-2h2z"/><path d="m27 30c0-.553-.447-1-1-1h-4c-.553 0-1 .447-1 1v4c0 .553.447 1 1 1h4c.553 0 1-.447 1-1zm-2 3h-2v-2h2z"/><path d="m43 38c0-.553-.447-1-1-1h-4c-.553 0-1 .447-1 1v4c0 .553.447 1 1 1h4c.553 0 1-.447 1-1zm-2 3h-2v-2h2z"/><path d="m35 38c0-.553-.447-1-1-1h-4c-.553 0-1 .447-1 1v4c0 .553.447 1 1 1h4c.553 0 1-.447 1-1zm-2 3h-2v-2h2z"/><path d="m27 38c0-.553-.447-1-1-1h-4c-.553 0-1 .447-1 1v4c0 .553.447 1 1 1h4c.553 0 1-.447 1-1zm-2 3h-2v-2h2z"/><path d="m56 53h-4c-.553 0-1 .447-1 1v4c0 .553.447 1 1 1h4c.553 0 1-.447 1-1v-4c0-.553-.447-1-1-1zm-1 4h-2v-2h2z"/><path d="m61 61v-35c0-.553-.447-1-1-1h-1v-3c0-.553-.447-1-1-1h-11v-3c0-.553-.447-1-1-1h-4v2h3v42h-8v-7c0-.553-.447-1-1-1h-8c-.553 0-1 .447-1 1v7h-8v-42h3v-2h-4c-.553 0-1 .447-1 1v3h-11c-.553 0-1 .447-1 1v3h-1c-.553 0-1 .447-1 1v35h-2v2h62v-2zm-4-38v2h-10v-2zm-10 4h12v34h-12zm-18 28h6v6h-6zm-22-32h10v2h-10zm-2 4h12v34h-12z"/><path d="m29.138 20.575 1.914 5.741c.136.409.517.684.948.684s.812-.275.948-.684l1.914-5.741c4.231-1.257 7.138-5.116 7.138-9.575 0-5.514-4.486-10-10-10s-10 4.486-10 10c0 4.459 2.907 8.318 7.138 9.575zm2.862-17.575c4.411 0 8 3.589 8 8 0 3.719-2.527 6.916-6.147 7.775-.336.08-.607.328-.717.656l-1.136 3.407-1.136-3.406c-.109-.328-.381-.576-.717-.656-3.62-.86-6.147-4.057-6.147-7.776 0-4.411 3.589-8 8-8z"/><path d="m32 17c3.309 0 6-2.691 6-6s-2.691-6-6-6-6 2.691-6 6 2.691 6 6 6zm0-10c2.206 0 4 1.794 4 4s-1.794 4-4 4-4-1.794-4-4 1.794-4 4-4z"/></g></svg>