<svg height="512pt" viewBox="0 0 512 512.00003" width="512pt" xmlns="http://www.w3.org/2000/svg"><path d="m375.464844 102.398438c28.277344 0 51.203125-22.921876 51.203125-51.199219 0-28.277344-22.925781-51.199219-51.203125-51.199219s-51.199219 22.921875-51.199219 51.199219c.027344 28.265625 22.933594 51.171875 51.199219 51.199219zm0-85.332032c18.851562 0 34.136718 15.28125 34.136718 34.132813 0 18.851562-15.285156 34.132812-34.136718 34.132812-18.851563 0-34.132813-15.28125-34.132813-34.132812 0-18.851563 15.28125-34.132813 34.132813-34.132813zm0 0"/><path d="m409.601562 512c14.136719 0 25.597657-11.460938 25.597657-25.601562v-174.933594c0-7.066406-5.730469-12.796875-12.800781-12.796875h-93.867188c-7.066406 0-12.796875 5.730469-12.796875 12.796875v174.933594c0 14.140624 11.460937 25.601562 25.597656 25.601562 14.140625 0 25.601563-11.460938 25.601563-25.601562v-128c-.003906-2.296876.945312-4.5 2.621094-6.074219 1.726562-1.816407 4.203124-2.726563 6.695312-2.457031 4.613281.746093 7.9375 4.820312 7.75 9.488281v127.042969c0 14.140624 11.460938 25.601562 25.601562 25.601562zm-31.90625-179.105469c-.746093-.09375-1.476562-.09375-2.230468-.09375-14.105469.078125-25.519532 11.492188-25.597656 25.597657v128c0 4.714843-3.820313 8.535156-8.535157 8.535156-4.710937 0-8.53125-3.820313-8.53125-8.535156v-170.664063h85.332031v170.664063c0 4.714843-3.820312 8.535156-8.53125 8.535156-4.714843 0-8.535156-3.820313-8.535156-8.535156v-127.042969c.1875-13.523438-9.929687-24.976563-23.371094-26.460938zm0 0"/><path d="m136.53125 102.398438c28.277344 0 51.203125-22.921876 51.203125-51.199219 0-28.277344-22.925781-51.199219-51.203125-51.199219-28.273438 0-51.199219 22.921875-51.199219 51.199219.027344 28.265625 22.9375 51.171875 51.199219 51.199219zm0-85.332032c18.851562 0 34.136719 15.28125 34.136719 34.132813 0 18.851562-15.285157 34.132812-34.136719 34.132812-18.847656 0-34.132812-15.28125-34.132812-34.132812 0-18.851563 15.285156-34.132813 34.132812-34.132813zm0 0"/><path d="m170.667969 512c14.136719 0 25.597656-11.460938 25.597656-25.601562v-174.933594c0-7.066406-5.730469-12.796875-12.800781-12.796875h-93.863282c-7.070312 0-12.800781 5.730469-12.800781 12.796875v174.933594c0 14.140624 11.460938 25.601562 25.597657 25.601562 14.140624 0 25.601562-11.460938 25.601562-25.601562v-127.042969c-.191406-4.664063 3.132812-8.738281 7.738281-9.488281 2.390625-.195313 4.753907.613281 6.523438 2.234374 1.769531 1.617188 2.785156 3.898438 2.804687 6.296876v128c0 14.140624 11.460938 25.601562 25.601563 25.601562zm-34.136719-179.199219c-.730469 0-1.472656 0-2.21875.09375-13.445312 1.480469-23.566406 12.933594-23.378906 26.460938v127.042969c0 4.714843-3.820313 8.535156-8.535156 8.535156-4.710938 0-8.53125-3.820313-8.53125-8.535156v-170.664063h85.332031v170.664063c0 4.714843-3.820313 8.535156-8.53125 8.535156-4.714844 0-8.535157-3.820313-8.535157-8.535156v-128c.054688-6.753907-2.632812-13.246094-7.449218-17.988282-4.773438-4.882812-11.320313-7.628906-18.152344-7.609375zm0 0"/><path d="m22.476562 302.839844c2.480469.632812 5.027344.953125 7.585938.957031 4.78125.007813 9.492188-1.132813 13.738281-3.328125 7.738281-4.007812 13.363281-11.164062 15.429688-19.628906l16.570312-83.976563 1-.46875v72.40625c0 7.070313 5.730469 12.800781 12.800781 12.800781h93.863282c7.070312 0 12.800781-5.730468 12.800781-12.800781v-8.074219l42.453125 30.722657c4.828125 3.136719 10.457031 4.804687 16.214844 4.800781.171875 0 .332031-.058594.503906-.058594.585938 0 1.167969.050782 1.757812.050782 5.84375-.039063 11.550782-1.800782 16.398438-5.066407l42.140625-30.492187v8.117187c0 7.070313 5.730469 12.800781 12.796875 12.800781h93.867188c7.070312 0 12.800781-5.730468 12.800781-12.800781v-72.414062l.992187.46875 16.664063 84.558593c4.273437 15.996094 20.675781 25.535157 36.691406 21.332032 7.730469-2.011719 14.332031-7.039063 18.332031-13.953125 4-6.769531 5.132813-14.859375 3.148438-22.46875l-21.113282-92.695313c-1.671874-6.214844-5.277343-11.734375-10.296874-15.761718l-48-36.820313c-5.292969-3.789063-11.835938-5.402344-18.28125-4.507813l-76.796876 9.386719c-.289062.035157-.574218.085938-.855468.152344-11.691406 2.597656-19.996094 12.988281-19.949219 24.960937v36.582032l-59.734375 42.34375-56.15625-40.167969c-2.253906-1.605469-3.585938-4.203125-3.578125-6.96875v-31.789063c-.117187-12.238281-8.800781-22.71875-20.804687-25.113281l-76.679688-9.386719c-6.484375-.910156-13.070312.699219-18.40625 4.496094l-.160156.136719-.09375.050781-48.011719 36.816406c-4.941406 4.085938-8.460937 9.632813-10.050781 15.84375l-21.101563 92.253907c-4.125 16.070312 5.484375 32.457031 21.519531 36.703125zm310.324219-151.800782c-.003906-3.847656 2.570313-7.21875 6.28125-8.234374l76.492188-9.34375c2.0625-.320313 4.175781.148437 5.914062 1.304687l47.554688 36.464844c2.046875 1.664062 3.535156 3.917969 4.265625 6.449219l21.179687 92.828124c.894531 3.304688.417969 6.828126-1.320312 9.777344-3.476563 5.984375-11.03125 8.195313-17.1875 5.035156-3.136719-1.578124-5.488281-4.375-6.503907-7.738281l-17.371093-88.253906c-.523438-2.65625-2.277344-4.910156-4.730469-6.066406l-32.195312-15.15625c-2.78125-1.632813-6.25-1.554688-8.957032.199219-2.710937 1.753906-4.195312 4.890624-3.84375 8.097656.355469 3.207031 2.488282 5.941406 5.515625 7.0625l10.238281 4.832031v76.238281h-85.332031zm-17.066406 57.5v31.101563l-30.996094 22.417969c0-.214844 0-.417969-.039062-.632813-1.324219-8.285156-6.050781-15.644531-13.039063-20.289062l-.984375-.703125zm-221.867187-75.050781c.902343-.132812 1.820312-.132812 2.722656 0l76.003906 9.25c3.890625.855469 6.648438 4.320313 6.605469 8.300781v31.789063c.011719 8.253906 3.996093 16.003906 10.703125 20.820313l72.113281 51.566406c3.125 2.003906 5.25 5.242187 5.835937 8.910156.792969 4.988281-1.375 9.988281-5.5625 12.820312-4.183593 2.832032-9.632812 2.984376-13.96875.386719l-54.835937-39.660156c-.503906-.457031-1.054687-.855469-1.648437-1.1875l-22.519532-16.324219c-2.214844-1.441406-3.941406-3.523437-4.9375-5.972656l-15.898437-46.292969c-.945313-2.941406-3.40625-5.144531-6.4375-5.753906-3.027344-.613281-6.148438.460937-8.160157 2.804687-2.015624 2.34375-2.601562 5.59375-1.539062 8.496094l16.050781 46.632813c2.183594 5.8125 6.152344 10.78125 11.332031 14.199219l19.472657 14.113281v16.148437h-85.332031zm-76.332032 136.703125 21.101563-92.28125c.671875-2.542968 2.101562-4.820312 4.105469-6.527344l34.058593-26.09375v32.246094l-12.167969 5.71875c-2.457031 1.15625-4.214843 3.410156-4.738281 6.074219l-17.289062 87.699219c-1.8125 6.929687-8.890625 11.089844-15.828125 9.300781-3.367188-.914063-6.230469-3.125-7.964844-6.152344-1.734375-3.027343-2.191406-6.621093-1.277344-9.984375zm0 0"/></svg>